<mxfile host="65bd71144e">
    <diagram id="wlsT5qrVfRt3JuwabJeI" name="Page-1">
        <mxGraphModel dx="2457" dy="1273" grid="0" gridSize="41" guides="1" tooltips="1" connect="1" arrows="1" fold="1" page="1" pageScale="1" pageWidth="827" pageHeight="1169" background="#33FFFF" math="0" shadow="0">
            <root>
                <mxCell id="0"/>
                <mxCell id="1" parent="0"/>
                <mxCell id="2" value="ByteCode" style="swimlane;fontStyle=1;align=center;verticalAlign=middle;childLayout=stackLayout;horizontal=1;startSize=29;horizontalStack=0;resizeParent=1;resizeParentMax=0;resizeLast=0;collapsible=0;marginBottom=0;html=1;" parent="1" vertex="1">
                    <mxGeometry x="-60" y="10" width="200" height="140" as="geometry"/>
                </mxCell>
                <mxCell id="3" value="init(ArrayList&amp;lt;String&amp;gt;)&amp;nbsp; &amp;nbsp; &amp;nbsp; &amp;nbsp; &amp;nbsp; &amp;nbsp; &amp;nbsp; void&lt;br&gt;execute(VirtualMachine)&amp;nbsp; &amp;nbsp; &amp;nbsp; &amp;nbsp; &amp;nbsp; Void&lt;br&gt;toString()&amp;nbsp; &amp;nbsp; &amp;nbsp; &amp;nbsp; &amp;nbsp; &amp;nbsp; &amp;nbsp; &amp;nbsp; &amp;nbsp; &amp;nbsp; &amp;nbsp; &amp;nbsp; &amp;nbsp; &amp;nbsp; &amp;nbsp; &amp;nbsp; String" style="text;html=1;strokeColor=none;fillColor=none;align=left;verticalAlign=middle;spacingLeft=4;spacingRight=4;overflow=hidden;rotatable=0;points=[[0,0.5],[1,0.5]];portConstraint=eastwest;" parent="2" vertex="1">
                    <mxGeometry y="29" width="200" height="111" as="geometry"/>
                </mxCell>
                <mxCell id="5" value="Class1" style="swimlane;fontStyle=1;align=center;verticalAlign=middle;childLayout=stackLayout;horizontal=1;startSize=29;horizontalStack=0;resizeParent=1;resizeParentMax=0;resizeLast=0;collapsible=0;marginBottom=0;html=1;" parent="1" vertex="1">
                    <mxGeometry x="-770" y="160" width="140" height="79" as="geometry"/>
                </mxCell>
                <mxCell id="6" value="&amp;lt;&amp;lt;stereotype1&amp;gt;&amp;gt;" style="text;html=1;strokeColor=none;fillColor=none;align=center;verticalAlign=middle;spacingLeft=4;spacingRight=4;overflow=hidden;rotatable=0;points=[[0,0.5],[1,0.5]];portConstraint=eastwest;" parent="5" vertex="1">
                    <mxGeometry y="29" width="140" height="25" as="geometry"/>
                </mxCell>
                <mxCell id="7" value="stereotype property 1" style="text;html=1;strokeColor=none;fillColor=none;align=left;verticalAlign=middle;spacingLeft=4;spacingRight=4;overflow=hidden;rotatable=0;points=[[0,0.5],[1,0.5]];portConstraint=eastwest;" parent="5" vertex="1">
                    <mxGeometry y="54" width="140" height="25" as="geometry"/>
                </mxCell>
                <mxCell id="8" value="CallCode" style="swimlane;fontStyle=1;align=center;verticalAlign=middle;childLayout=stackLayout;horizontal=1;startSize=29;horizontalStack=0;resizeParent=1;resizeParentMax=0;resizeLast=0;collapsible=0;marginBottom=0;html=1;" parent="1" vertex="1">
                    <mxGeometry x="-580" y="35" width="190" height="160" as="geometry"/>
                </mxCell>
                <mxCell id="9" value="address&amp;nbsp; &amp;nbsp; &amp;nbsp; &amp;nbsp; &amp;nbsp; &amp;nbsp; &amp;nbsp; &amp;nbsp; &amp;nbsp; &amp;nbsp; &amp;nbsp; &amp;nbsp; &amp;nbsp; &amp;nbsp; &amp;nbsp; &amp;nbsp;int&lt;br&gt;label&amp;nbsp; &amp;nbsp; &amp;nbsp; &amp;nbsp; &amp;nbsp; &amp;nbsp; &amp;nbsp; &amp;nbsp; &amp;nbsp; &amp;nbsp; &amp;nbsp; &amp;nbsp; &amp;nbsp; &amp;nbsp; &amp;nbsp; &amp;nbsp; &amp;nbsp; &amp;nbsp;String&lt;br&gt;&lt;span&gt;init(ArrayList&amp;lt;String&amp;gt;)&amp;nbsp; &amp;nbsp; &amp;nbsp; &amp;nbsp; void&lt;/span&gt;&lt;br&gt;&lt;span&gt;execute(VirtualMachine)&amp;nbsp; &amp;nbsp; Void&lt;/span&gt;&lt;br&gt;toString()&amp;nbsp; &amp;nbsp; &amp;nbsp; &amp;nbsp; &amp;nbsp; &amp;nbsp; &amp;nbsp; &amp;nbsp; &amp;nbsp; &amp;nbsp; &amp;nbsp; &amp;nbsp; &amp;nbsp; &amp;nbsp;String&lt;br&gt;setAddress()&amp;nbsp; &amp;nbsp; &amp;nbsp; &amp;nbsp; &amp;nbsp; &amp;nbsp; &amp;nbsp; &amp;nbsp; &amp;nbsp; &amp;nbsp; &amp;nbsp; Void&lt;br&gt;getLabel()&amp;nbsp; &amp;nbsp; &amp;nbsp; &amp;nbsp; &amp;nbsp; &amp;nbsp; &amp;nbsp; &amp;nbsp; &amp;nbsp; &amp;nbsp; &amp;nbsp; &amp;nbsp; &amp;nbsp; String" style="text;html=1;strokeColor=none;fillColor=none;align=left;verticalAlign=middle;spacingLeft=4;spacingRight=4;overflow=hidden;rotatable=0;points=[[0,0.5],[1,0.5]];portConstraint=eastwest;" parent="8" vertex="1">
                    <mxGeometry y="29" width="190" height="131" as="geometry"/>
                </mxCell>
                <mxCell id="11" value="DbgCode" style="swimlane;fontStyle=1;align=center;verticalAlign=middle;childLayout=stackLayout;horizontal=1;startSize=29;horizontalStack=0;resizeParent=1;resizeParentMax=0;resizeLast=0;collapsible=0;marginBottom=0;html=1;" parent="1" vertex="1">
                    <mxGeometry x="-320" y="310" width="170" height="110" as="geometry"/>
                </mxCell>
                <mxCell id="12" value="val&amp;nbsp; &amp;nbsp; int&lt;br&gt;&lt;span style=&quot;text-align: left&quot;&gt;init(ArrayList&amp;lt;String&amp;gt;)&amp;nbsp; &amp;nbsp; &amp;nbsp;void&lt;/span&gt;&lt;br style=&quot;text-align: left&quot;&gt;&lt;span style=&quot;text-align: left&quot;&gt;execute(VirtualMachine)&amp;nbsp; &amp;nbsp;Void&lt;/span&gt;&lt;br&gt;toString()&amp;nbsp; String" style="text;html=1;strokeColor=none;fillColor=none;align=center;verticalAlign=middle;spacingLeft=4;spacingRight=4;overflow=hidden;rotatable=0;points=[[0,0.5],[1,0.5]];portConstraint=eastwest;" parent="11" vertex="1">
                    <mxGeometry y="29" width="170" height="81" as="geometry"/>
                </mxCell>
                <mxCell id="14" value="FalsebranchCode" style="swimlane;fontStyle=1;align=center;verticalAlign=middle;childLayout=stackLayout;horizontal=1;startSize=29;horizontalStack=0;resizeParent=1;resizeParentMax=0;resizeLast=0;collapsible=0;marginBottom=0;html=1;" parent="1" vertex="1">
                    <mxGeometry x="-320" y="605" width="210" height="160" as="geometry"/>
                </mxCell>
                <mxCell id="15" value="&lt;font color=&quot;#000000&quot;&gt;&lt;span style=&quot;text-align: left&quot;&gt;address&amp;nbsp; &amp;nbsp; &amp;nbsp; &amp;nbsp; &amp;nbsp; &amp;nbsp; &amp;nbsp; &amp;nbsp; &amp;nbsp; &amp;nbsp; &amp;nbsp; &amp;nbsp; &amp;nbsp; &amp;nbsp; &amp;nbsp; &amp;nbsp;int&lt;/span&gt;&lt;br style=&quot;text-align: left&quot;&gt;&lt;span style=&quot;text-align: left&quot;&gt;label&amp;nbsp; &amp;nbsp; &amp;nbsp; &amp;nbsp; &amp;nbsp; &amp;nbsp; &amp;nbsp; &amp;nbsp; &amp;nbsp; &amp;nbsp; &amp;nbsp; &amp;nbsp; &amp;nbsp; &amp;nbsp; &amp;nbsp; &amp;nbsp; &amp;nbsp; &amp;nbsp;String&lt;/span&gt;&lt;br style=&quot;text-align: left&quot;&gt;&lt;span style=&quot;text-align: left&quot;&gt;init(ArrayList&amp;lt;String&amp;gt;)&amp;nbsp; &amp;nbsp; &amp;nbsp; &amp;nbsp; void&lt;/span&gt;&lt;br style=&quot;text-align: left&quot;&gt;&lt;span style=&quot;text-align: left&quot;&gt;execute(VirtualMachine)&amp;nbsp; &amp;nbsp; Void&lt;/span&gt;&lt;br style=&quot;text-align: left&quot;&gt;&lt;span style=&quot;text-align: left&quot;&gt;toString()&amp;nbsp; &amp;nbsp; &amp;nbsp; &amp;nbsp; &amp;nbsp; &amp;nbsp; &amp;nbsp; &amp;nbsp; &amp;nbsp; &amp;nbsp; &amp;nbsp; &amp;nbsp; &amp;nbsp; &amp;nbsp;String&lt;/span&gt;&lt;br style=&quot;text-align: left&quot;&gt;&lt;span style=&quot;text-align: left&quot;&gt;setAddress()&amp;nbsp; &amp;nbsp; &amp;nbsp; &amp;nbsp; &amp;nbsp; &amp;nbsp; &amp;nbsp; &amp;nbsp; &amp;nbsp; &amp;nbsp; &amp;nbsp; Void&lt;/span&gt;&lt;br style=&quot;text-align: left&quot;&gt;&lt;span style=&quot;text-align: left&quot;&gt;getLabel()&amp;nbsp; &amp;nbsp; &amp;nbsp; &amp;nbsp; &amp;nbsp; &amp;nbsp; &amp;nbsp; &amp;nbsp; &amp;nbsp; &amp;nbsp; &amp;nbsp; &amp;nbsp; &amp;nbsp; String&lt;/span&gt;&lt;/font&gt;" style="text;html=1;align=center;verticalAlign=middle;spacingLeft=4;spacingRight=4;overflow=hidden;rotatable=0;points=[[0,0.5],[1,0.5]];portConstraint=eastwest;" parent="14" vertex="1">
                    <mxGeometry y="29" width="210" height="131" as="geometry"/>
                </mxCell>
                <mxCell id="17" value="ArgsCode" style="swimlane;fontStyle=1;align=center;verticalAlign=middle;childLayout=stackLayout;horizontal=1;startSize=29;horizontalStack=0;resizeParent=1;resizeParentMax=0;resizeLast=0;collapsible=0;marginBottom=0;html=1;" parent="1" vertex="1">
                    <mxGeometry x="-370" y="40" width="190" height="130" as="geometry"/>
                </mxCell>
                <mxCell id="18" value="offset&amp;nbsp; &amp;nbsp; &amp;nbsp; &amp;nbsp; &amp;nbsp; &amp;nbsp; &amp;nbsp; &amp;nbsp; &amp;nbsp; &amp;nbsp; &amp;nbsp; &amp;nbsp; &amp;nbsp; &amp;nbsp; &amp;nbsp; &amp;nbsp; &amp;nbsp; &amp;nbsp; &amp;nbsp;int&lt;br&gt;init(ArrayList&amp;lt;String&amp;gt;)&amp;nbsp; &amp;nbsp; &amp;nbsp; &amp;nbsp; &amp;nbsp; void&lt;br&gt;execute(VirtualMachine)&amp;nbsp; &amp;nbsp; &amp;nbsp; Void&lt;br&gt;toString()&amp;nbsp; &amp;nbsp; &amp;nbsp; &amp;nbsp; &amp;nbsp; &amp;nbsp; &amp;nbsp; &amp;nbsp; &amp;nbsp; &amp;nbsp; &amp;nbsp; &amp;nbsp; &amp;nbsp; &amp;nbsp; &amp;nbsp;String" style="text;html=1;strokeColor=none;fillColor=none;align=left;verticalAlign=middle;spacingLeft=4;spacingRight=4;overflow=hidden;rotatable=0;points=[[0,0.5],[1,0.5]];portConstraint=eastwest;" parent="17" vertex="1">
                    <mxGeometry y="29" width="190" height="101" as="geometry"/>
                </mxCell>
                <mxCell id="20" value="BopCode" style="swimlane;fontStyle=1;align=center;verticalAlign=middle;childLayout=stackLayout;horizontal=1;startSize=29;horizontalStack=0;resizeParent=1;resizeParentMax=0;resizeLast=0;collapsible=0;marginBottom=0;html=1;" parent="1" vertex="1">
                    <mxGeometry x="313" y="51" width="200" height="160" as="geometry"/>
                </mxCell>
                <mxCell id="21" value="&lt;div&gt;&lt;span&gt;operator&amp;nbsp; &amp;nbsp; &amp;nbsp; &amp;nbsp; &amp;nbsp; &amp;nbsp; &amp;nbsp; &amp;nbsp; &amp;nbsp; &amp;nbsp; &amp;nbsp; &amp;nbsp; &amp;nbsp; &amp;nbsp; &amp;nbsp; &amp;nbsp;String&lt;/span&gt;&lt;/div&gt;&lt;div&gt;&lt;span&gt;one&amp;nbsp; &amp;nbsp; &amp;nbsp; &amp;nbsp; &amp;nbsp; &amp;nbsp; &amp;nbsp; &amp;nbsp; &amp;nbsp; &amp;nbsp; &amp;nbsp; &amp;nbsp; &amp;nbsp; &amp;nbsp; &amp;nbsp; &amp;nbsp; &amp;nbsp; &amp;nbsp; &amp;nbsp; &amp;nbsp;int&lt;/span&gt;&lt;/div&gt;&lt;div&gt;&lt;span&gt;two&amp;nbsp; &amp;nbsp; &amp;nbsp; &amp;nbsp; &amp;nbsp; &amp;nbsp; &amp;nbsp; &amp;nbsp; &amp;nbsp; &amp;nbsp; &amp;nbsp; &amp;nbsp; &amp;nbsp; &amp;nbsp; &amp;nbsp; &amp;nbsp; &amp;nbsp; &amp;nbsp; &amp;nbsp; &amp;nbsp; int&lt;/span&gt;&lt;/div&gt;&lt;div&gt;&lt;span&gt;init(ArrayList&amp;lt;String&amp;gt;&lt;/span&gt;&lt;span&gt;)&amp;nbsp; &amp;nbsp; &amp;nbsp; &amp;nbsp; &amp;nbsp; Void&lt;/span&gt;&lt;/div&gt;&lt;div&gt;&lt;span&gt;execute(VirtualMachine)&amp;nbsp; &amp;nbsp; &amp;nbsp; &amp;nbsp;Void&lt;/span&gt;&lt;/div&gt;&lt;div&gt;&lt;span&gt;toString()&amp;nbsp; &amp;nbsp; &amp;nbsp; &amp;nbsp; &amp;nbsp; &amp;nbsp; &amp;nbsp; &amp;nbsp; &amp;nbsp; &amp;nbsp; &amp;nbsp; &amp;nbsp; &amp;nbsp; &amp;nbsp; &amp;nbsp; String&lt;/span&gt;&lt;/div&gt;" style="text;html=1;strokeColor=none;fillColor=none;align=left;verticalAlign=middle;spacingLeft=4;spacingRight=4;overflow=hidden;rotatable=0;points=[[0,0.5],[1,0.5]];portConstraint=eastwest;" parent="20" vertex="1">
                    <mxGeometry y="29" width="200" height="131" as="geometry"/>
                </mxCell>
                <mxCell id="23" value="HaltCode" style="swimlane;fontStyle=1;align=center;verticalAlign=middle;childLayout=stackLayout;horizontal=1;startSize=29;horizontalStack=0;resizeParent=1;resizeParentMax=0;resizeLast=0;collapsible=0;marginBottom=0;html=1;" parent="1" vertex="1">
                    <mxGeometry x="338" y="260" width="190" height="130" as="geometry"/>
                </mxCell>
                <mxCell id="24" value="init(ArrayList&amp;lt;String&amp;gt;)&amp;nbsp; &amp;nbsp; void&lt;br&gt;execute(VirtualMachin&amp;nbsp; &amp;nbsp; &amp;nbsp; &amp;nbsp;Void&lt;br&gt;toString()&amp;nbsp; &amp;nbsp; &amp;nbsp; &amp;nbsp; &amp;nbsp; &amp;nbsp; &amp;nbsp; &amp;nbsp; &amp;nbsp; &amp;nbsp; &amp;nbsp;String" style="text;html=1;strokeColor=none;fillColor=none;align=center;verticalAlign=middle;spacingLeft=4;spacingRight=4;overflow=hidden;rotatable=0;points=[[0,0.5],[1,0.5]];portConstraint=eastwest;" parent="23" vertex="1">
                    <mxGeometry y="29" width="190" height="101" as="geometry"/>
                </mxCell>
                <mxCell id="90" style="edgeStyle=none;html=1;exitX=0.5;exitY=0;exitDx=0;exitDy=0;entryX=0.278;entryY=1.054;entryDx=0;entryDy=0;entryPerimeter=0;" edge="1" parent="1" source="26" target="3">
                    <mxGeometry relative="1" as="geometry"/>
                </mxCell>
                <mxCell id="26" value="GotoCode" style="swimlane;fontStyle=1;align=center;verticalAlign=middle;childLayout=stackLayout;horizontal=1;startSize=29;horizontalStack=0;resizeParent=1;resizeParentMax=0;resizeLast=0;collapsible=0;marginBottom=0;html=1;" parent="1" vertex="1">
                    <mxGeometry x="-130" y="214" width="180" height="160" as="geometry"/>
                </mxCell>
                <mxCell id="27" value="address&amp;nbsp; &amp;nbsp; &amp;nbsp; &amp;nbsp; &amp;nbsp; &amp;nbsp; &amp;nbsp; &amp;nbsp; &amp;nbsp; &amp;nbsp; &amp;nbsp; &amp;nbsp; &amp;nbsp; &amp;nbsp; &amp;nbsp; int&lt;br&gt;label&amp;nbsp; &amp;nbsp; &amp;nbsp; &amp;nbsp; &amp;nbsp; &amp;nbsp; &amp;nbsp; &amp;nbsp; &amp;nbsp; &amp;nbsp; &amp;nbsp; &amp;nbsp; &amp;nbsp; &amp;nbsp; &amp;nbsp; &amp;nbsp; &amp;nbsp;String&lt;br&gt;&lt;span&gt;init(ArrayList&amp;lt;String&amp;gt;)&amp;nbsp; &amp;nbsp; &amp;nbsp; &amp;nbsp; void&lt;/span&gt;&lt;br&gt;&lt;span&gt;execute(VirtualMachine)&amp;nbsp; &amp;nbsp; Void&lt;/span&gt;&lt;br&gt;toString()&amp;nbsp; &amp;nbsp; &amp;nbsp; &amp;nbsp; &amp;nbsp; &amp;nbsp; &amp;nbsp; &amp;nbsp; &amp;nbsp; &amp;nbsp; &amp;nbsp; &amp;nbsp; &amp;nbsp;String&lt;br&gt;setAddress()&amp;nbsp; &amp;nbsp; &amp;nbsp; &amp;nbsp; &amp;nbsp; &amp;nbsp; &amp;nbsp; &amp;nbsp; &amp;nbsp; &amp;nbsp; &amp;nbsp;Void&lt;br&gt;getLabel()&amp;nbsp; &amp;nbsp; &amp;nbsp; &amp;nbsp; &amp;nbsp; &amp;nbsp; &amp;nbsp; &amp;nbsp; &amp;nbsp; &amp;nbsp; &amp;nbsp; &amp;nbsp; String&lt;br&gt;getBranchTarget()&amp;nbsp; &amp;nbsp; &amp;nbsp; &amp;nbsp; &amp;nbsp; &amp;nbsp; &amp;nbsp; int" style="text;html=1;strokeColor=none;fillColor=none;align=left;verticalAlign=middle;spacingLeft=4;spacingRight=4;overflow=hidden;rotatable=0;points=[[0,0.5],[1,0.5]];portConstraint=eastwest;" parent="26" vertex="1">
                    <mxGeometry y="29" width="180" height="131" as="geometry"/>
                </mxCell>
                <mxCell id="29" value="LabelCode" style="swimlane;fontStyle=1;align=center;verticalAlign=middle;childLayout=stackLayout;horizontal=1;startSize=29;horizontalStack=0;resizeParent=1;resizeParentMax=0;resizeLast=0;collapsible=0;marginBottom=0;html=1;" parent="1" vertex="1">
                    <mxGeometry x="600" y="270" width="190" height="170" as="geometry"/>
                </mxCell>
                <mxCell id="30" value="&lt;span style=&quot;text-align: left&quot;&gt;label&amp;nbsp; &amp;nbsp; &amp;nbsp; &amp;nbsp; &amp;nbsp; &amp;nbsp; &amp;nbsp; &amp;nbsp; &amp;nbsp; &amp;nbsp; &amp;nbsp; &amp;nbsp; &amp;nbsp; &amp;nbsp; &amp;nbsp; &amp;nbsp; &amp;nbsp; &amp;nbsp;String&lt;/span&gt;&lt;br style=&quot;text-align: left&quot;&gt;&lt;span style=&quot;text-align: left&quot;&gt;init(ArrayList&amp;lt;String&amp;gt;)&amp;nbsp; &amp;nbsp; &amp;nbsp; &amp;nbsp; void&lt;/span&gt;&lt;br style=&quot;text-align: left&quot;&gt;&lt;span style=&quot;text-align: left&quot;&gt;execute(VirtualMachine)&amp;nbsp; &amp;nbsp; Void&lt;/span&gt;&lt;br style=&quot;text-align: left&quot;&gt;&lt;span style=&quot;text-align: left&quot;&gt;toString()&amp;nbsp; &amp;nbsp; &amp;nbsp; &amp;nbsp; &amp;nbsp; &amp;nbsp; &amp;nbsp; &amp;nbsp; &amp;nbsp; &amp;nbsp; &amp;nbsp; &amp;nbsp; &amp;nbsp; &amp;nbsp;String&lt;/span&gt;&lt;br style=&quot;text-align: left&quot;&gt;&lt;span style=&quot;text-align: left&quot;&gt;getLabel()&amp;nbsp; &amp;nbsp; &amp;nbsp; &amp;nbsp; &amp;nbsp; &amp;nbsp; &amp;nbsp; &amp;nbsp; &amp;nbsp; &amp;nbsp; &amp;nbsp; &amp;nbsp; &amp;nbsp; String&lt;/span&gt;" style="text;html=1;strokeColor=none;fillColor=none;align=center;verticalAlign=middle;spacingLeft=4;spacingRight=4;overflow=hidden;rotatable=0;points=[[0,0.5],[1,0.5]];portConstraint=eastwest;" parent="29" vertex="1">
                    <mxGeometry y="29" width="190" height="141" as="geometry"/>
                </mxCell>
                <mxCell id="32" value="LoadCode" style="swimlane;fontStyle=1;align=center;verticalAlign=middle;childLayout=stackLayout;horizontal=1;startSize=29;horizontalStack=0;resizeParent=1;resizeParentMax=0;resizeLast=0;collapsible=0;marginBottom=0;html=1;" parent="1" vertex="1">
                    <mxGeometry x="600" y="40" width="200" height="150" as="geometry"/>
                </mxCell>
                <mxCell id="33" value="&lt;span style=&quot;text-align: left&quot;&gt;offset&amp;nbsp; &amp;nbsp; &amp;nbsp; &amp;nbsp; &amp;nbsp; &amp;nbsp; &amp;nbsp; &amp;nbsp; &amp;nbsp; &amp;nbsp; &amp;nbsp; &amp;nbsp; &amp;nbsp; &amp;nbsp; &amp;nbsp; &amp;nbsp; &amp;nbsp; &amp;nbsp; &amp;nbsp;int&lt;br&gt;&lt;/span&gt;name&amp;nbsp; &amp;nbsp; &amp;nbsp; &amp;nbsp; &amp;nbsp; &amp;nbsp; &amp;nbsp; &amp;nbsp; &amp;nbsp; &amp;nbsp; &amp;nbsp; &amp;nbsp; &amp;nbsp; &amp;nbsp; &amp;nbsp; &amp;nbsp; &amp;nbsp; &amp;nbsp;String&lt;br style=&quot;text-align: left&quot;&gt;&lt;span style=&quot;text-align: left&quot;&gt;init(ArrayList&amp;lt;String&amp;gt;)&amp;nbsp; &amp;nbsp; &amp;nbsp; &amp;nbsp; &amp;nbsp; void&lt;/span&gt;&lt;br style=&quot;text-align: left&quot;&gt;&lt;span style=&quot;text-align: left&quot;&gt;execute(VirtualMachine)&amp;nbsp; &amp;nbsp; &amp;nbsp; Void&lt;/span&gt;&lt;br style=&quot;text-align: left&quot;&gt;&lt;span style=&quot;text-align: left&quot;&gt;toString()&amp;nbsp; &amp;nbsp; &amp;nbsp; &amp;nbsp; &amp;nbsp; &amp;nbsp; &amp;nbsp; &amp;nbsp; &amp;nbsp; &amp;nbsp; &amp;nbsp; &amp;nbsp; &amp;nbsp; &amp;nbsp; &amp;nbsp;String&lt;/span&gt;" style="text;html=1;strokeColor=none;fillColor=none;align=center;verticalAlign=middle;spacingLeft=4;spacingRight=4;overflow=hidden;rotatable=0;points=[[0,0.5],[1,0.5]];portConstraint=eastwest;" parent="32" vertex="1">
                    <mxGeometry y="29" width="200" height="121" as="geometry"/>
                </mxCell>
                <mxCell id="35" value="PopCode" style="swimlane;fontStyle=1;align=center;verticalAlign=middle;childLayout=stackLayout;horizontal=1;startSize=29;horizontalStack=0;resizeParent=1;resizeParentMax=0;resizeLast=0;collapsible=0;marginBottom=0;html=1;" parent="1" vertex="1">
                    <mxGeometry x="20" y="620" width="240" height="130" as="geometry"/>
                </mxCell>
                <mxCell id="36" value="&lt;span style=&quot;text-align: left&quot;&gt;pops&amp;nbsp; &amp;nbsp; &amp;nbsp; &amp;nbsp; &amp;nbsp; &amp;nbsp; &amp;nbsp; &amp;nbsp; &amp;nbsp; &amp;nbsp; &amp;nbsp; &amp;nbsp; &amp;nbsp; &amp;nbsp; &amp;nbsp; &amp;nbsp; &amp;nbsp; &amp;nbsp; &amp;nbsp; &amp;nbsp; &amp;nbsp;int&lt;br&gt;init(ArrayList&amp;lt;String&amp;gt;)&amp;nbsp; &amp;nbsp; &amp;nbsp; &amp;nbsp; &amp;nbsp; &amp;nbsp; &amp;nbsp; void&lt;/span&gt;&lt;br style=&quot;text-align: left&quot;&gt;&lt;span style=&quot;text-align: left&quot;&gt;execute(VirtualMachine)&amp;nbsp; &amp;nbsp; &amp;nbsp; &amp;nbsp; &amp;nbsp; Void&lt;/span&gt;&lt;br style=&quot;text-align: left&quot;&gt;&lt;span style=&quot;text-align: left&quot;&gt;toString()&amp;nbsp; &amp;nbsp; &amp;nbsp; &amp;nbsp; &amp;nbsp; &amp;nbsp; &amp;nbsp; &amp;nbsp; &amp;nbsp; &amp;nbsp; &amp;nbsp; &amp;nbsp; &amp;nbsp; &amp;nbsp; &amp;nbsp; &amp;nbsp; String&lt;/span&gt;" style="text;html=1;strokeColor=none;fillColor=none;align=center;verticalAlign=middle;spacingLeft=4;spacingRight=4;overflow=hidden;rotatable=0;points=[[0,0.5],[1,0.5]];portConstraint=eastwest;" parent="35" vertex="1">
                    <mxGeometry y="29" width="240" height="101" as="geometry"/>
                </mxCell>
                <mxCell id="38" value="ReadCode" style="swimlane;fontStyle=1;align=center;verticalAlign=middle;childLayout=stackLayout;horizontal=1;startSize=29;horizontalStack=0;resizeParent=1;resizeParentMax=0;resizeLast=0;collapsible=0;marginBottom=0;html=1;" parent="1" vertex="1">
                    <mxGeometry x="298" y="650" width="230" height="130" as="geometry"/>
                </mxCell>
                <mxCell id="39" value="&lt;span style=&quot;text-align: left&quot;&gt;number&amp;nbsp; &amp;nbsp; &amp;nbsp; &amp;nbsp; &amp;nbsp; &amp;nbsp; &amp;nbsp; &amp;nbsp; &amp;nbsp; &amp;nbsp; &amp;nbsp; &amp;nbsp; &amp;nbsp; &amp;nbsp; &amp;nbsp; &amp;nbsp;int&lt;br&gt;init(ArrayList&amp;lt;String&amp;gt;)&amp;nbsp; &amp;nbsp; &amp;nbsp; &amp;nbsp; &amp;nbsp; &amp;nbsp; &amp;nbsp; void&lt;/span&gt;&lt;br style=&quot;text-align: left&quot;&gt;&lt;span style=&quot;text-align: left&quot;&gt;execute(VirtualMachine)&amp;nbsp; &amp;nbsp; &amp;nbsp; &amp;nbsp; &amp;nbsp; Void&lt;/span&gt;&lt;br style=&quot;text-align: left&quot;&gt;&lt;span style=&quot;text-align: left&quot;&gt;toString()&amp;nbsp; &amp;nbsp; &amp;nbsp; &amp;nbsp; &amp;nbsp; &amp;nbsp; &amp;nbsp; &amp;nbsp; &amp;nbsp; &amp;nbsp; &amp;nbsp; &amp;nbsp; &amp;nbsp; &amp;nbsp; &amp;nbsp; &amp;nbsp; String&lt;/span&gt;" style="text;html=1;strokeColor=none;fillColor=none;align=center;verticalAlign=middle;spacingLeft=4;spacingRight=4;overflow=hidden;rotatable=0;points=[[0,0.5],[1,0.5]];portConstraint=eastwest;" parent="38" vertex="1">
                    <mxGeometry y="29" width="230" height="101" as="geometry"/>
                </mxCell>
                <mxCell id="44" value="ReturnCode" style="swimlane;fontStyle=1;align=center;verticalAlign=middle;childLayout=stackLayout;horizontal=1;startSize=29;horizontalStack=0;resizeParent=1;resizeParentMax=0;resizeLast=0;collapsible=0;marginBottom=0;html=1;" parent="1" vertex="1">
                    <mxGeometry x="380" y="460" width="220" height="160" as="geometry"/>
                </mxCell>
                <mxCell id="45" value="&lt;span style=&quot;text-align: left&quot;&gt;address&amp;nbsp; &amp;nbsp; &amp;nbsp; &amp;nbsp; &amp;nbsp; &amp;nbsp; &amp;nbsp; &amp;nbsp; &amp;nbsp; &amp;nbsp; &amp;nbsp; &amp;nbsp; &amp;nbsp; &amp;nbsp; &amp;nbsp; &amp;nbsp;int&lt;/span&gt;&lt;br style=&quot;text-align: left&quot;&gt;&lt;span style=&quot;text-align: left&quot;&gt;label&amp;nbsp; &amp;nbsp; &amp;nbsp; &amp;nbsp; &amp;nbsp; &amp;nbsp; &amp;nbsp; &amp;nbsp; &amp;nbsp; &amp;nbsp; &amp;nbsp; &amp;nbsp; &amp;nbsp; &amp;nbsp; &amp;nbsp; &amp;nbsp; &amp;nbsp; &amp;nbsp;String&lt;/span&gt;&lt;br style=&quot;text-align: left&quot;&gt;&lt;span style=&quot;text-align: left&quot;&gt;init(ArrayList&amp;lt;String&amp;gt;)&amp;nbsp; &amp;nbsp; &amp;nbsp; &amp;nbsp; void&lt;/span&gt;&lt;br style=&quot;text-align: left&quot;&gt;&lt;span style=&quot;text-align: left&quot;&gt;execute(VirtualMachine)&amp;nbsp; &amp;nbsp; Void&lt;/span&gt;&lt;br style=&quot;text-align: left&quot;&gt;&lt;span style=&quot;text-align: left&quot;&gt;toString()&amp;nbsp; &amp;nbsp; &amp;nbsp; &amp;nbsp; &amp;nbsp; &amp;nbsp; &amp;nbsp; &amp;nbsp; &amp;nbsp; &amp;nbsp; &amp;nbsp; &amp;nbsp; &amp;nbsp; &amp;nbsp;String&lt;/span&gt;" style="text;html=1;strokeColor=none;fillColor=none;align=center;verticalAlign=middle;spacingLeft=4;spacingRight=4;overflow=hidden;rotatable=0;points=[[0,0.5],[1,0.5]];portConstraint=eastwest;" parent="44" vertex="1">
                    <mxGeometry y="29" width="220" height="131" as="geometry"/>
                </mxCell>
                <mxCell id="47" value="WriteCode" style="swimlane;fontStyle=1;align=center;verticalAlign=middle;childLayout=stackLayout;horizontal=1;startSize=29;horizontalStack=0;resizeParent=1;resizeParentMax=0;resizeLast=0;collapsible=0;marginBottom=0;html=1;" parent="1" vertex="1">
                    <mxGeometry x="-550" y="300" width="200" height="120" as="geometry"/>
                </mxCell>
                <mxCell id="48" value="&lt;span style=&quot;text-align: left&quot;&gt;init(ArrayList&amp;lt;String&amp;gt;)&amp;nbsp; &amp;nbsp; &amp;nbsp; &amp;nbsp; &amp;nbsp; &amp;nbsp; &amp;nbsp; void&lt;/span&gt;&lt;br style=&quot;text-align: left&quot;&gt;&lt;span style=&quot;text-align: left&quot;&gt;execute(VirtualMachine)&amp;nbsp; &amp;nbsp; &amp;nbsp; &amp;nbsp; &amp;nbsp; Void&lt;/span&gt;&lt;br style=&quot;text-align: left&quot;&gt;&lt;span style=&quot;text-align: left&quot;&gt;toString()&amp;nbsp; &amp;nbsp; &amp;nbsp; &amp;nbsp; &amp;nbsp; &amp;nbsp; &amp;nbsp; &amp;nbsp; &amp;nbsp; &amp;nbsp; &amp;nbsp; &amp;nbsp; &amp;nbsp; &amp;nbsp; &amp;nbsp; &amp;nbsp; String&lt;/span&gt;" style="text;html=1;strokeColor=none;fillColor=none;align=center;verticalAlign=middle;spacingLeft=4;spacingRight=4;overflow=hidden;rotatable=0;points=[[0,0.5],[1,0.5]];portConstraint=eastwest;" parent="47" vertex="1">
                    <mxGeometry y="29" width="200" height="91" as="geometry"/>
                </mxCell>
                <mxCell id="89" style="edgeStyle=none;html=1;exitX=0.5;exitY=0;exitDx=0;exitDy=0;entryX=0.892;entryY=1.018;entryDx=0;entryDy=0;entryPerimeter=0;" edge="1" parent="1" source="41" target="3">
                    <mxGeometry relative="1" as="geometry"/>
                </mxCell>
                <mxCell id="41" value="StoreCode" style="swimlane;fontStyle=1;align=center;verticalAlign=middle;childLayout=stackLayout;horizontal=1;startSize=29;horizontalStack=0;resizeParent=1;resizeParentMax=0;resizeLast=0;collapsible=0;marginBottom=0;html=1;" parent="1" vertex="1">
                    <mxGeometry x="90" y="239" width="170" height="140" as="geometry"/>
                </mxCell>
                <mxCell id="42" value="val&amp;nbsp; &amp;nbsp; &amp;nbsp; &amp;nbsp; &amp;nbsp; &amp;nbsp; &amp;nbsp; &amp;nbsp; &amp;nbsp; &amp;nbsp; &amp;nbsp; &amp;nbsp; &amp;nbsp; &amp;nbsp; &amp;nbsp;int&lt;br&gt;offset&amp;nbsp; &amp;nbsp; &amp;nbsp; &amp;nbsp; &amp;nbsp; &amp;nbsp; &amp;nbsp; &amp;nbsp; &amp;nbsp; &amp;nbsp; &amp;nbsp; &amp;nbsp; &amp;nbsp; int&lt;br&gt;&lt;span style=&quot;text-align: left&quot;&gt;init(ArrayList&amp;lt;String&amp;gt;)&amp;nbsp; &amp;nbsp; &amp;nbsp;void&lt;/span&gt;&lt;br style=&quot;text-align: left&quot;&gt;&lt;span style=&quot;text-align: left&quot;&gt;execute(VirtualMachine)&amp;nbsp; Void&lt;/span&gt;&lt;br&gt;toString()&amp;nbsp; &amp;nbsp; &amp;nbsp; &amp;nbsp; &amp;nbsp; &amp;nbsp; &amp;nbsp; &amp;nbsp; &amp;nbsp; String" style="text;html=1;strokeColor=none;fillColor=none;align=center;verticalAlign=middle;spacingLeft=4;spacingRight=4;overflow=hidden;rotatable=0;points=[[0,0.5],[1,0.5]];portConstraint=eastwest;" parent="41" vertex="1">
                    <mxGeometry y="29" width="170" height="111" as="geometry"/>
                </mxCell>
                <mxCell id="65" value="ByteCodeLoader" style="swimlane;fontStyle=1;align=center;verticalAlign=middle;childLayout=stackLayout;horizontal=1;startSize=29;horizontalStack=0;resizeParent=1;resizeParentMax=0;resizeLast=0;collapsible=0;marginBottom=0;html=1;" vertex="1" parent="1">
                    <mxGeometry x="-550" y="840" width="190" height="110" as="geometry"/>
                </mxCell>
                <mxCell id="66" value="Reader&amp;nbsp; &amp;nbsp; BufferedReader&lt;br&gt;loadCodes()&amp;nbsp; &amp;nbsp; &amp;nbsp;Program" style="text;html=1;strokeColor=none;fillColor=none;align=center;verticalAlign=middle;spacingLeft=4;spacingRight=4;overflow=hidden;rotatable=0;points=[[0,0.5],[1,0.5]];portConstraint=eastwest;" vertex="1" parent="65">
                    <mxGeometry y="29" width="190" height="81" as="geometry"/>
                </mxCell>
                <mxCell id="68" value="CodeTable" style="swimlane;fontStyle=1;align=center;verticalAlign=middle;childLayout=stackLayout;horizontal=1;startSize=29;horizontalStack=0;resizeParent=1;resizeParentMax=0;resizeLast=0;collapsible=0;marginBottom=0;html=1;" vertex="1" parent="1">
                    <mxGeometry x="-300" y="840" width="230" height="54" as="geometry"/>
                </mxCell>
                <mxCell id="69" value="codetabel&amp;nbsp; &amp;nbsp;HashMap&amp;lt;String,String&amp;gt;" style="text;html=1;strokeColor=none;fillColor=none;align=center;verticalAlign=middle;spacingLeft=4;spacingRight=4;overflow=hidden;rotatable=0;points=[[0,0.5],[1,0.5]];portConstraint=eastwest;" vertex="1" parent="68">
                    <mxGeometry y="29" width="230" height="25" as="geometry"/>
                </mxCell>
                <mxCell id="71" value="Interpreter" style="swimlane;fontStyle=1;align=center;verticalAlign=middle;childLayout=stackLayout;horizontal=1;startSize=29;horizontalStack=0;resizeParent=1;resizeParentMax=0;resizeLast=0;collapsible=0;marginBottom=0;html=1;" vertex="1" parent="1">
                    <mxGeometry x="10" y="840" width="190" height="120" as="geometry"/>
                </mxCell>
                <mxCell id="72" value="bytecodeloader&amp;nbsp; ByteCodeLoader&lt;br&gt;run()&amp;nbsp; &amp;nbsp; &amp;nbsp; &amp;nbsp; &amp;nbsp; &amp;nbsp; &amp;nbsp; &amp;nbsp; &amp;nbsp; &amp;nbsp; &amp;nbsp; &amp;nbsp; &amp;nbsp; &amp;nbsp; &amp;nbsp; &amp;nbsp; &amp;nbsp; Void&lt;br&gt;main()&amp;nbsp; &amp;nbsp; &amp;nbsp; &amp;nbsp; &amp;nbsp; &amp;nbsp; &amp;nbsp; &amp;nbsp; &amp;nbsp; &amp;nbsp; &amp;nbsp; &amp;nbsp; &amp;nbsp; &amp;nbsp; &amp;nbsp; &amp;nbsp; &amp;nbsp;Void" style="text;html=1;strokeColor=none;fillColor=none;align=left;verticalAlign=middle;spacingLeft=4;spacingRight=4;overflow=hidden;rotatable=0;points=[[0,0.5],[1,0.5]];portConstraint=eastwest;" vertex="1" parent="71">
                    <mxGeometry y="29" width="190" height="91" as="geometry"/>
                </mxCell>
                <mxCell id="74" value="Program" style="swimlane;fontStyle=1;align=center;verticalAlign=middle;childLayout=stackLayout;horizontal=1;startSize=29;horizontalStack=0;resizeParent=1;resizeParentMax=0;resizeLast=0;collapsible=0;marginBottom=0;html=1;" vertex="1" parent="1">
                    <mxGeometry x="273" y="840" width="210" height="160" as="geometry"/>
                </mxCell>
                <mxCell id="75" value="bytecodes&amp;nbsp; &amp;nbsp; &amp;nbsp; &amp;nbsp; &amp;nbsp; &amp;nbsp; &amp;nbsp; ArrayList&amp;lt;String&amp;gt;&lt;br&gt;labels&amp;nbsp; &amp;nbsp; &amp;nbsp; &amp;nbsp; HashMap&amp;lt;String, Integer&amp;gt;&lt;br&gt;address&amp;nbsp; &amp;nbsp; &amp;nbsp; &amp;nbsp; &amp;nbsp; &amp;nbsp; &amp;nbsp; &amp;nbsp; &amp;nbsp; &amp;nbsp; &amp;nbsp; &amp;nbsp; &amp;nbsp; &amp;nbsp; &amp;nbsp; &amp;nbsp; &amp;nbsp; &amp;nbsp; &amp;nbsp; &amp;nbsp; &amp;nbsp;int&amp;nbsp;&lt;br&gt;getCode()&amp;nbsp; &amp;nbsp; &amp;nbsp; &amp;nbsp; &amp;nbsp; &amp;nbsp; &amp;nbsp; &amp;nbsp; &amp;nbsp; &amp;nbsp; &amp;nbsp; &amp;nbsp; &amp;nbsp; &amp;nbsp; ByteCode&lt;br&gt;addCode()&amp;nbsp; &amp;nbsp; &amp;nbsp; &amp;nbsp; &amp;nbsp; &amp;nbsp; &amp;nbsp; &amp;nbsp; &amp;nbsp; &amp;nbsp; &amp;nbsp; &amp;nbsp; &amp;nbsp; &amp;nbsp; &amp;nbsp; &amp;nbsp; &amp;nbsp;Void&lt;br&gt;getSize()&amp;nbsp; &amp;nbsp; &amp;nbsp; &amp;nbsp; &amp;nbsp; &amp;nbsp; &amp;nbsp; &amp;nbsp; &amp;nbsp; &amp;nbsp; &amp;nbsp; &amp;nbsp; &amp;nbsp; &amp;nbsp; &amp;nbsp; &amp;nbsp; &amp;nbsp; &amp;nbsp; &amp;nbsp;int&lt;br&gt;resolveSymbolicAddresses()&amp;nbsp; &amp;nbsp;Void" style="text;html=1;strokeColor=none;fillColor=none;align=left;verticalAlign=middle;spacingLeft=4;spacingRight=4;overflow=hidden;rotatable=0;points=[[0,0.5],[1,0.5]];portConstraint=eastwest;" vertex="1" parent="74">
                    <mxGeometry y="29" width="210" height="131" as="geometry"/>
                </mxCell>
                <mxCell id="77" value="RunTimeStack" style="swimlane;fontStyle=1;align=center;verticalAlign=middle;childLayout=stackLayout;horizontal=1;startSize=29;horizontalStack=0;resizeParent=1;resizeParentMax=0;resizeLast=0;collapsible=0;marginBottom=0;html=1;" vertex="1" parent="1">
                    <mxGeometry x="-270" y="930" width="190" height="200" as="geometry"/>
                </mxCell>
                <mxCell id="78" value="framePointers&amp;nbsp; &amp;nbsp; &amp;nbsp; &amp;nbsp;Stack&amp;lt;Integer&amp;gt;&lt;br&gt;runStack&amp;nbsp; &amp;nbsp; &amp;nbsp; &amp;nbsp; &amp;nbsp; &amp;nbsp; &amp;nbsp; Vector&amp;lt;Integer&amp;gt;&lt;br&gt;toString()&amp;nbsp; &amp;nbsp; &amp;nbsp; &amp;nbsp; &amp;nbsp; &amp;nbsp; &amp;nbsp; &amp;nbsp; &amp;nbsp; &amp;nbsp; &amp;nbsp; &amp;nbsp; &amp;nbsp; &amp;nbsp;String&lt;br&gt;peek()&amp;nbsp; &amp;nbsp; &amp;nbsp; &amp;nbsp; &amp;nbsp; &amp;nbsp; &amp;nbsp; &amp;nbsp; &amp;nbsp; &amp;nbsp; &amp;nbsp; &amp;nbsp; &amp;nbsp; &amp;nbsp; &amp;nbsp; &amp;nbsp; &amp;nbsp; &amp;nbsp; &amp;nbsp;int&lt;br&gt;pop()&amp;nbsp; &amp;nbsp; &amp;nbsp; &amp;nbsp; &amp;nbsp; &amp;nbsp; &amp;nbsp; &amp;nbsp; &amp;nbsp; &amp;nbsp; &amp;nbsp; &amp;nbsp; &amp;nbsp; &amp;nbsp; &amp;nbsp; &amp;nbsp; &amp;nbsp; &amp;nbsp; &amp;nbsp; &amp;nbsp;int&lt;br&gt;push(int)&amp;nbsp; &amp;nbsp; &amp;nbsp; &amp;nbsp; &amp;nbsp; &amp;nbsp; &amp;nbsp; &amp;nbsp; &amp;nbsp; &amp;nbsp; &amp;nbsp; &amp;nbsp; &amp;nbsp; &amp;nbsp; &amp;nbsp; Void&lt;br&gt;push(Integer)&amp;nbsp; &amp;nbsp; &amp;nbsp; &amp;nbsp; &amp;nbsp; &amp;nbsp; &amp;nbsp; &amp;nbsp; &amp;nbsp; &amp;nbsp;integer&lt;br&gt;newFrameAt(int)&amp;nbsp; &amp;nbsp; &amp;nbsp; &amp;nbsp; &amp;nbsp; &amp;nbsp; &amp;nbsp; &amp;nbsp; &amp;nbsp;Void&lt;br&gt;popFrame()&amp;nbsp; &amp;nbsp; &amp;nbsp; &amp;nbsp; &amp;nbsp; &amp;nbsp; &amp;nbsp; &amp;nbsp; &amp;nbsp; &amp;nbsp; &amp;nbsp; &amp;nbsp; &amp;nbsp;void&lt;br&gt;store(int)&amp;nbsp; &amp;nbsp; &amp;nbsp; &amp;nbsp; &amp;nbsp; &amp;nbsp; &amp;nbsp; &amp;nbsp; &amp;nbsp; &amp;nbsp; &amp;nbsp; &amp;nbsp; &amp;nbsp; &amp;nbsp; &amp;nbsp; void&lt;br&gt;load(int)&amp;nbsp; &amp;nbsp; &amp;nbsp; &amp;nbsp; &amp;nbsp; &amp;nbsp; &amp;nbsp; &amp;nbsp; &amp;nbsp; &amp;nbsp; &amp;nbsp; &amp;nbsp; &amp;nbsp; &amp;nbsp; &amp;nbsp; &amp;nbsp; &amp;nbsp; int" style="text;html=1;strokeColor=none;fillColor=none;align=left;verticalAlign=middle;spacingLeft=4;spacingRight=4;overflow=hidden;rotatable=0;points=[[0,0.5],[1,0.5]];portConstraint=eastwest;" vertex="1" parent="77">
                    <mxGeometry y="29" width="190" height="171" as="geometry"/>
                </mxCell>
                <mxCell id="80" value="VirtualMachine" style="swimlane;fontStyle=1;align=center;verticalAlign=middle;childLayout=stackLayout;horizontal=1;startSize=29;horizontalStack=0;resizeParent=1;resizeParentMax=0;resizeLast=0;collapsible=0;marginBottom=0;html=1;" vertex="1" parent="1">
                    <mxGeometry x="570" y="710" width="220" height="390" as="geometry"/>
                </mxCell>
                <mxCell id="81" value="&lt;div style=&quot;text-align: justify&quot;&gt;&lt;span&gt;pc int&lt;/span&gt;&lt;/div&gt;&lt;div style=&quot;text-align: justify&quot;&gt;&lt;span&gt;runtimestack RuntimeStack&lt;/span&gt;&lt;/div&gt;&lt;div style=&quot;text-align: justify&quot;&gt;&lt;span&gt;returnAddresses&amp;nbsp; Stack&amp;lt;Integer&amp;gt;&lt;/span&gt;&lt;/div&gt;&lt;div style=&quot;text-align: justify&quot;&gt;&lt;span&gt;isRunning Boolean&lt;/span&gt;&lt;/div&gt;&lt;div style=&quot;text-align: justify&quot;&gt;&lt;span&gt;isOutputting&amp;nbsp; Boolean&lt;/span&gt;&lt;/div&gt;&lt;div style=&quot;text-align: justify&quot;&gt;&lt;span&gt;program Program&lt;/span&gt;&lt;/div&gt;&lt;div style=&quot;text-align: justify&quot;&gt;&lt;span&gt;haltExecution() void&lt;/span&gt;&lt;/div&gt;&lt;div style=&quot;text-align: justify&quot;&gt;&lt;span&gt;popRuntimeStack() int&lt;/span&gt;&lt;/div&gt;&lt;div style=&quot;text-align: justify&quot;&gt;&lt;span&gt;loadRuntimeStack(int) int&lt;/span&gt;&lt;/div&gt;&lt;div style=&quot;text-align: justify&quot;&gt;&lt;span&gt;pushRuntimeStack(int) int&lt;/span&gt;&lt;/div&gt;&lt;div style=&quot;text-align: justify&quot;&gt;&lt;span&gt;storeRuntimeStack(int) int&lt;/span&gt;&lt;/div&gt;&lt;div style=&quot;text-align: justify&quot;&gt;&lt;span&gt;addReturnAddresses(int) int&lt;/span&gt;&lt;/div&gt;&lt;div style=&quot;text-align: justify&quot;&gt;&lt;span&gt;popReturnAddresses(int) int&lt;/span&gt;&lt;/div&gt;&lt;div style=&quot;text-align: justify&quot;&gt;&lt;span&gt;newFrameAtRstack(int) void&lt;/span&gt;&lt;/div&gt;&lt;div style=&quot;text-align: justify&quot;&gt;&lt;span&gt;RSpopFrame() void&lt;/span&gt;&lt;/div&gt;&lt;div style=&quot;text-align: justify&quot;&gt;&lt;span&gt;peekRuntimeStack() int&lt;/span&gt;&lt;/div&gt;&lt;div style=&quot;text-align: justify&quot;&gt;&lt;span&gt;setProgramCounter(int) void&lt;/span&gt;&lt;/div&gt;&lt;div style=&quot;text-align: justify&quot;&gt;&lt;span&gt;getProgramCounter() int&lt;/span&gt;&lt;/div&gt;&lt;div style=&quot;text-align: justify&quot;&gt;&lt;span&gt;setDBG(boolean) void&lt;/span&gt;&lt;/div&gt;&lt;div style=&quot;text-align: justify&quot;&gt;&lt;span&gt;outputRuntimeStack()&amp;nbsp; void&lt;/span&gt;&lt;/div&gt;&lt;div style=&quot;text-align: justify&quot;&gt;&lt;span&gt;executeProgram() void&lt;/span&gt;&lt;/div&gt;&lt;div style=&quot;text-align: justify&quot;&gt;&lt;br&gt;&lt;/div&gt;&lt;div style=&quot;text-align: justify&quot;&gt;&lt;br&gt;&lt;/div&gt;" style="text;html=1;strokeColor=none;fillColor=none;align=right;verticalAlign=middle;spacingLeft=4;spacingRight=4;overflow=hidden;rotatable=0;points=[[0,0.5],[1,0.5]];portConstraint=eastwest;" vertex="1" parent="80">
                    <mxGeometry y="29" width="220" height="361" as="geometry"/>
                </mxCell>
                <mxCell id="83" value="" style="edgeStyle=segmentEdgeStyle;endArrow=classic;html=1;exitX=0.5;exitY=0;exitDx=0;exitDy=0;entryX=0.658;entryY=1.054;entryDx=0;entryDy=0;entryPerimeter=0;" edge="1" parent="1" source="14" target="3">
                    <mxGeometry width="50" height="50" relative="1" as="geometry">
                        <mxPoint x="160" y="460" as="sourcePoint"/>
                        <mxPoint x="210" y="410" as="targetPoint"/>
                        <Array as="points">
                            <mxPoint x="-115" y="480"/>
                            <mxPoint x="50" y="480"/>
                            <mxPoint x="50" y="400"/>
                            <mxPoint x="72" y="400"/>
                        </Array>
                    </mxGeometry>
                </mxCell>
                <mxCell id="84" value="" style="edgeStyle=segmentEdgeStyle;endArrow=classic;html=1;exitX=0.5;exitY=0;exitDx=0;exitDy=0;entryX=0.572;entryY=1.054;entryDx=0;entryDy=0;entryPerimeter=0;" edge="1" parent="1" source="35" target="3">
                    <mxGeometry width="50" height="50" relative="1" as="geometry">
                        <mxPoint x="160" y="460" as="sourcePoint"/>
                        <mxPoint x="210" y="410" as="targetPoint"/>
                        <Array as="points">
                            <mxPoint x="70" y="585"/>
                            <mxPoint x="70" y="410"/>
                            <mxPoint x="54" y="410"/>
                        </Array>
                    </mxGeometry>
                </mxCell>
                <mxCell id="85" value="" style="edgeStyle=segmentEdgeStyle;endArrow=classic;html=1;exitX=0.445;exitY=-0.005;exitDx=0;exitDy=0;exitPerimeter=0;entryX=0.65;entryY=1.09;entryDx=0;entryDy=0;entryPerimeter=0;" edge="1" parent="1" source="38" target="3">
                    <mxGeometry width="50" height="50" relative="1" as="geometry">
                        <mxPoint x="160" y="460" as="sourcePoint"/>
                        <mxPoint x="210" y="410" as="targetPoint"/>
                        <Array as="points">
                            <mxPoint x="340" y="629"/>
                            <mxPoint x="340" y="410"/>
                            <mxPoint x="70" y="410"/>
                        </Array>
                    </mxGeometry>
                </mxCell>
                <mxCell id="86" value="" style="edgeStyle=segmentEdgeStyle;endArrow=classic;html=1;exitX=0.5;exitY=0;exitDx=0;exitDy=0;entryX=0.612;entryY=1.054;entryDx=0;entryDy=0;entryPerimeter=0;" edge="1" parent="1" source="44" target="3">
                    <mxGeometry width="50" height="50" relative="1" as="geometry">
                        <mxPoint x="160" y="460" as="sourcePoint"/>
                        <mxPoint x="210" y="410" as="targetPoint"/>
                        <Array as="points">
                            <mxPoint x="90" y="445"/>
                            <mxPoint x="90" y="410"/>
                            <mxPoint x="62" y="410"/>
                        </Array>
                    </mxGeometry>
                </mxCell>
                <mxCell id="87" style="edgeStyle=none;html=1;" edge="1" parent="1" source="18" target="3">
                    <mxGeometry relative="1" as="geometry"/>
                </mxCell>
                <mxCell id="88" style="edgeStyle=none;html=1;entryX=1;entryY=0.5;entryDx=0;entryDy=0;" edge="1" parent="1" source="21" target="3">
                    <mxGeometry relative="1" as="geometry"/>
                </mxCell>
                <mxCell id="92" value="" style="edgeStyle=segmentEdgeStyle;endArrow=classic;html=1;exitX=0.5;exitY=0;exitDx=0;exitDy=0;entryX=0.352;entryY=1.042;entryDx=0;entryDy=0;entryPerimeter=0;" edge="1" parent="1" source="11" target="3">
                    <mxGeometry width="50" height="50" relative="1" as="geometry">
                        <mxPoint x="-280" y="261" as="sourcePoint"/>
                        <mxPoint x="-235" y="210" as="targetPoint"/>
                        <Array as="points">
                            <mxPoint x="-235" y="200"/>
                            <mxPoint x="10" y="200"/>
                        </Array>
                    </mxGeometry>
                </mxCell>
                <mxCell id="93" value="" style="edgeStyle=segmentEdgeStyle;endArrow=classic;html=1;entryX=0.225;entryY=1.03;entryDx=0;entryDy=0;entryPerimeter=0;" edge="1" parent="1" target="3">
                    <mxGeometry width="50" height="50" relative="1" as="geometry">
                        <mxPoint x="-490" y="200" as="sourcePoint"/>
                        <mxPoint x="-340" y="195" as="targetPoint"/>
                        <Array as="points">
                            <mxPoint x="-390" y="200"/>
                            <mxPoint x="-15" y="200"/>
                        </Array>
                    </mxGeometry>
                </mxCell>
                <mxCell id="94" value="" style="edgeStyle=segmentEdgeStyle;endArrow=classic;html=1;exitX=0.5;exitY=0;exitDx=0;exitDy=0;" edge="1" parent="1" source="32">
                    <mxGeometry width="50" height="50" relative="1" as="geometry">
                        <mxPoint x="600" y="20" as="sourcePoint"/>
                        <mxPoint x="140" y="40" as="targetPoint"/>
                        <Array as="points">
                            <mxPoint x="190" y="40"/>
                            <mxPoint x="190" y="30"/>
                            <mxPoint x="140" y="30"/>
                        </Array>
                    </mxGeometry>
                </mxCell>
                <mxCell id="95" value="" style="edgeStyle=segmentEdgeStyle;endArrow=classic;html=1;exitX=0.5;exitY=0;exitDx=0;exitDy=0;entryX=0.812;entryY=1.018;entryDx=0;entryDy=0;entryPerimeter=0;" edge="1" parent="1" source="29" target="3">
                    <mxGeometry width="50" height="50" relative="1" as="geometry">
                        <mxPoint x="640" y="250" as="sourcePoint"/>
                        <mxPoint x="690" y="200" as="targetPoint"/>
                        <Array as="points">
                            <mxPoint x="590" y="270"/>
                            <mxPoint x="590" y="220"/>
                            <mxPoint x="102" y="220"/>
                        </Array>
                    </mxGeometry>
                </mxCell>
                <mxCell id="96" value="" style="edgeStyle=segmentEdgeStyle;endArrow=classic;html=1;exitX=0.5;exitY=0;exitDx=0;exitDy=0;entryX=0.858;entryY=1.018;entryDx=0;entryDy=0;entryPerimeter=0;" edge="1" parent="1" source="23" target="3">
                    <mxGeometry width="50" height="50" relative="1" as="geometry">
                        <mxPoint x="230" y="210" as="sourcePoint"/>
                        <mxPoint x="280" y="160" as="targetPoint"/>
                        <Array as="points">
                            <mxPoint x="433" y="230"/>
                            <mxPoint x="112" y="230"/>
                        </Array>
                    </mxGeometry>
                </mxCell>
            </root>
        </mxGraphModel>
    </diagram>
</mxfile>